PathFileType	4	(X/Y/Z)	C:\Users\Biomechanik\SynologyDrive\AlexP\Athlete_03\Athlete_3_25_03_31\Deadlift_bar_01\marker_experimental.trc
DataRate	CameraRate	NumFrames	NumMarkers	Units	OrigDataRate	OrigDataStartFrame	OrigNumFrames
200.000000	200.000000	4	55	mm	200.000000	549	1464
Frame#	Time	BL			BR			GLAB			RFHD			LFHD			C7			T6			SPINMOL			SPINM2			SPINM3			T12			BELTOL			BELT2			BELT3			SACROL			SACR2			SACR3			LTHOL			LTH2			LTH3			LSHAOL			LSHA2			LSHA3			LHEE			LTOE			LM5			RTHOL			RTH2			RTH3			RSHAOL			RSHA2			RSHA3			RHEE			RTOE			RM5			STRN			XIPH			LACR			LUAOL			LUA2			LUA3			LLAOL			LLA2			LLA3			LWRR			LWRU			RACR			RUAOL			RUA2			RUA3			RLAOL			RLA2			RLA3			RWRR			RWRU			
		X1	Y1	Z1	X2	Y2	Z2	X3	Y3	Z3	X4	Y4	Z4	X5	Y5	Z5	X6	Y6	Z6	X7	Y7	Z7	X8	Y8	Z8	X9	Y9	Z9	X10	Y10	Z10	X11	Y11	Z11	X12	Y12	Z12	X13	Y13	Z13	X14	Y14	Z14	X15	Y15	Z15	X16	Y16	Z16	X17	Y17	Z17	X18	Y18	Z18	X19	Y19	Z19	X20	Y20	Z20	X21	Y21	Z21	X22	Y22	Z22	X23	Y23	Z23	X24	Y24	Z24	X25	Y25	Z25	X26	Y26	Z26	X27	Y27	Z27	X28	Y28	Z28	X29	Y29	Z29	X30	Y30	Z30	X31	Y31	Z31	X32	Y32	Z32	X33	Y33	Z33	X34	Y34	Z34	X35	Y35	Z35	X36	Y36	Z36	X37	Y37	Z37	X38	Y38	Z38	X39	Y39	Z39	X40	Y40	Z40	X41	Y41	Z41	X42	Y42	Z42	X43	Y43	Z43	X44	Y44	Z44	X45	Y45	Z45	X46	Y46	Z46	X47	Y47	Z47	X48	Y48	Z48	X49	Y49	Z49	X50	Y50	Z50	X51	Y51	Z51	X52	Y52	Z52	X53	Y53	Z53	X54	Y54	Z54	X55	Y55	Z55	

550	2.745	338.1785583496094	438.016815185547	-2231.53173828125	330.3821105957031	435.4654846191406	-209.7498931884765	636.0213623046875	1160.359252929688	-1203.324829101562	622.654052734375	1214.628662109375	-1140.367065429688	623.5084838867188	1206.726196289062	-1276.655639648438	362.1053771972656	1217.22216796875	-1210.40185546875	201.5287170410156	1149.452392578125	-1213.815673828125	171.2016448974609	1130.145263671875	-1235.295043945312	161.9241485595703	1126.192993164062	-1186.22314453125	122.117073059082	1087.094360351562	-1222.684936523438	82.74794006347656	1041.967651367188	-1221.142333984375	46.49202728271484	1038.250732421875	-1237.020751953125	44.03338623046875	1034.943359375	-1186.66162109375	-0.9950261116027832	997.5765380859376	-1216.612915039062	-78.44107055664062	921.2921142578126	-1243.798095703125	-78.4931640625	916.7421264648439	-1192.677856445312	-111.4761276245117	867.6754760742189	-1222.319946289062	88.02748870849609	606.9512329101564	-1427.940551757812	81.05947875976562	533.5783081054689	-1399.15185546875	122.7311477661133	556.8406372070314	-1414.61669921875	179.8446655273438	313.9394531250001	-1426.968017578125	125.2951431274414	256.7641906738282	-1415.790771484375	175.0122528076172	252.7730865478516	-1419.311401367188	77.11020660400391	69.13410186767587	-1319.16943359375	293.5529174804688	48.04267883300789	-1332.026977539062	241.9452514648438	29.63576889038095	-1431.086791992188	65.52944183349609	604.8865966796876	-1014.098693847656	143.2379455566406	596.3870239257814	-996.0288696289062	112.0515594482422	563.3226318359376	-1016.977416992188	166.1290283203125	333.4724121093751	-1001.789245605469	191.8264617919922	259.3071289062501	-1002.926574707031	146.5565032958984	275.3489379882813	-1014.550659179688	79.69570159912109	61.98362350463874	-1118.68359375	292.3002319335938	48.14362335205085	-1096.994873046875	234.9155731201172	39.21756744384772	-1000.194030761719	423.5398864746094	1027.735961914062	-1208.8984375	327.892822265625	916.0420532226564	-1211.941284179688	409.0099792480469	1118.66650390625	-1375.062133789062	382.2396850585938	974.3276367187501	-1464.866455078125	361.2352905273438	916.6958618164064	-1487.746459960938	394.5921936035156	912.1171875000001	-1449.376953125	363.7277526855469	712.2772827148439	-1499.478149414062	309.263671875	655.9273071289064	-1510.654052734375	357.6236572265625	651.4801635742189	-1499.603515625	364.0505065917969	546.7233276367189	-1497.5009765625	340.5954895019531	538.3214721679689	-1422.4365234375	406.3952331542969	1114.146606445312	-1052.734375	369.47607421875	977.0797119140626	-964.9548339843749	377.7711486816406	912.9656372070314	-969.2581176757812	342.0326843261719	924.7324829101564	-934.1997680664062	339.6724853515625	700.2380981445314	-928.9267578125	387.1294860839844	636.7945556640626	-934.8286743164062	337.6602172851562	637.4509277343751	-929.19384765625	365.149169921875	550.1235961914064	-935.1956176757812	328.7957153320312	528.1757202148439	-1008.614196777344	
551	2.75	337.931396484375	436.1463623046876	-2231.4462890625	330.3721923828125	433.334716796875	-209.6555786132812	636.4028930664062	1158.080688476562	-1203.39599609375	623.1202392578125	1212.3408203125	-1140.413208007812	623.8823852539062	1204.454223632812	-1276.708984375	362.5563354492188	1215.278076171875	-1210.315795898438	201.8872680664062	1147.851318359375	-1213.65234375	171.5092315673828	1128.63623046875	-1235.123779296875	162.2520294189453	1124.679931640625	-1186.025146484375	122.3153762817383	1085.697265625	-1222.5146484375	82.84724426269531	1040.666625976562	-1220.959838867188	46.60342788696289	1037.034912109375	-1236.820922851562	44.16487503051758	1033.699462890625	-1186.46826171875	-0.9633705615997314	996.4108276367189	-1216.40283203125	-78.64215850830078	920.2124023437501	-1243.586059570312	-78.6748046875	915.6392211914064	-1192.474975585938	-111.7163391113281	866.6180419921876	-1222.114501953125	88.25213623046875	606.2897949218751	-1427.888427734375	81.52407073974609	532.8503417968751	-1399.18505859375	123.1129455566406	556.2735595703126	-1414.636962890625	180.4078826904297	313.8161621093751	-1426.997436523438	125.7364120483398	256.754119873047	-1415.842163085938	175.44482421875	252.679428100586	-1419.315307617188	77.11620330810547	69.14527130126962	-1319.158325195312	293.5558166503906	48.03905105590828	-1332.028930664062	241.9494476318359	29.63355636596689	-1431.089233398438	65.91471862792969	604.1078491210939	-1013.904113769531	143.6662139892578	595.8842773437501	-995.9187622070312	112.5556793212891	562.6845092773439	-1016.78955078125	166.7269897460938	333.4082336425782	-1001.73486328125	192.2932281494141	259.1552429199219	-1002.849609375	147.0740966796875	275.2312316894532	-1014.500671386719	79.69877624511719	61.99649429321296	-1118.680419921875	292.2991638183594	48.14459609985358	-1097	234.9176635742188	39.21656417846686	-1000.191589355469	423.6687622070312	1025.6787109375	-1208.880126953125	327.7901000976562	914.1714477539064	-1211.920043945312	409.2622985839844	1116.568603515625	-1374.996215820312	382.4278869628906	972.3161010742189	-1464.782592773438	361.460693359375	914.6582641601564	-1487.695190429688	394.7315368652344	910.0912475585939	-1449.2958984375	363.7391052246094	710.2745361328126	-1499.435302734375	309.2299499511719	653.9542846679689	-1510.578735351562	357.6076354980469	649.4724121093751	-1499.54443359375	363.9679260253906	544.7238159179689	-1497.43212890625	340.5160522460938	536.3436279296876	-1422.359741210938	406.76171875	1112.016235351562	-1052.707275390625	369.8353881835938	975.0072021484376	-964.9534301757811	378.0666198730469	910.8876953125001	-969.2401733398438	342.4013366699219	922.6857910156251	-934.1278076171875	339.8056335449219	698.2108764648439	-928.8178100585938	387.2090148925781	634.7152709960939	-934.760009765625	337.73828125	635.4158325195314	-929.0828857421875	365.1424255371094	548.0891113281251	-935.0776977539062	328.728271484375	526.1312866210939	-1008.463195800781	
552	2.755	337.6768188476562	434.2858276367189	-2231.36083984375	330.3568115234375	431.2107543945312	-209.5615234375	636.7724609375	1155.821411132812	-1203.462280273438	623.5703125	1210.071044921875	-1140.454223632812	624.2447509765625	1202.20361328125	-1276.757568359375	362.9933166503906	1213.33935546875	-1210.231811523438	202.2359161376953	1146.245483398438	-1213.493774414062	171.8112487792969	1127.119018554688	-1234.95751953125	162.572509765625	1123.1572265625	-1185.83447265625	122.5091781616211	1084.289916992188	-1222.349731445312	82.94628143310547	1039.35400390625	-1220.782958984375	46.71601486206055	1035.8037109375	-1236.628051757812	44.29697036743164	1032.4443359375	-1186.282592773438	-0.9275782704353333	995.2295532226564	-1216.197143554688	-78.83731079101562	919.1174926757814	-1243.378051757812	-78.84741973876953	914.5227661132814	-1192.274658203125	-111.9475708007812	865.5449829101564	-1221.909057617188	88.49172973632812	605.6083984375001	-1427.831298828125	82.00786590576172	532.1064453125001	-1399.20703125	123.5108032226562	555.6915283203126	-1414.65087890625	180.9843139648438	313.6887207031251	-1427.023803710938	126.1864852905273	256.7445373535157	-1415.890014648438	175.8858032226562	252.5845489501954	-1419.31591796875	77.12290191650391	69.15715026855477	-1319.145751953125	293.5592651367188	48.03489685058602	-1332.030029296875	241.9534454345703	29.6327667236329	-1431.09033203125	66.3172607421875	603.3299560546876	-1013.696960449219	144.1106872558594	595.3811645507814	-995.8017578125	113.0753555297852	562.0475463867189	-1016.595520019531	167.3380432128906	333.3385620117188	-1001.675476074219	192.7705230712891	259.0002136230469	-1002.773132324219	147.6010284423828	275.1091613769532	-1014.450500488281	79.7025146484375	62.01089859008796	-1118.677368164062	292.2986450195312	48.14531707763678	-1097.005249023438	234.9217529296875	39.21433258056647	-1000.189880371094	423.791259765625	1023.63330078125	-1208.860473632812	327.6932067871094	912.3050537109376	-1211.902709960938	409.5046691894531	1114.480224609375	-1374.930419921875	382.6100769042969	970.3127441406251	-1464.699462890625	361.6940307617188	912.6313476562501	-1487.65673828125	394.86572265625	908.0720214843751	-1449.214111328125	363.7489318847656	708.2789306640626	-1499.392333984375	309.1972351074219	651.9885253906251	-1510.506591796875	357.588623046875	647.4727783203126	-1499.48681640625	363.8828735351562	542.7315673828126	-1497.363159179688	340.4327697753906	534.3736572265626	-1422.283325195312	407.114990234375	1109.894409179688	-1052.679565429688	370.1835327148438	972.9424438476564	-964.9495239257811	378.3560791015625	908.8184814453126	-969.22119140625	342.7613525390625	920.6454467773439	-934.0573120117188	339.9322204589844	696.1925659179689	-928.703125	387.2840576171875	632.6405029296876	-934.6882934570312	337.8114013671875	633.3872680664064	-928.968994140625	365.1300964355469	546.0584106445314	-934.9664916992188	328.6506042480469	524.0925903320314	-1008.305419921875	
553	2.76	337.4154968261719	432.4340820312501	-2231.274658203125	330.33642578125	429.0934143066406	-209.4678344726562	637.1300048828125	1153.581298828125	-1203.52294921875	624.0034790039062	1207.81982421875	-1140.48974609375	624.5960693359375	1199.974487304688	-1276.80078125	363.4161682128906	1211.406005859375	-1210.150634765625	202.5746612548828	1144.635009765625	-1213.340576171875	172.1073913574219	1125.593383789062	-1234.797119140625	162.8852691650391	1121.624755859375	-1185.65234375	122.6988143920898	1082.8720703125	-1222.190673828125	83.04480743408203	1038.029296875	-1220.612060546875	46.82904434204102	1034.556396484375	-1236.443237304688	44.42906951904297	1031.176635742188	-1186.104248046875	-0.8863978385925293	994.0326538085939	-1215.995971679688	-79.02652740478516	918.0065917968751	-1243.175048828125	-79.01113891601562	913.3924560546876	-1192.077392578125	-112.1698303222656	864.4554443359376	-1221.7041015625	88.74485778808594	604.9050292968751	-1427.767822265625	82.51032257080078	531.3447875976564	-1399.216674804688	123.9237899780273	555.0931396484376	-1414.658081054688	181.572509765625	313.5570373535157	-1427.047241210938	126.6437759399414	256.7356872558595	-1415.93359375	176.3336791992188	252.4884643554688	-1419.3134765625	77.13026428222656	69.16941833496102	-1319.131958007812	293.5631713867188	48.03030014038094	-1332.030151367188	241.9572296142578	29.63332366943368	-1431.090209960938	66.73561096191406	602.5515747070314	-1013.47802734375	144.5698699951172	594.8765258789064	-995.6773681640625	113.6099395751953	561.4109497070314	-1016.396423339844	167.9622344970703	333.2628173828126	-1001.610778808594	193.2583618164062	258.8416442871094	-1002.697998046875	148.1361236572266	274.9843444824219	-1014.398986816406	79.70695495605469	62.02676773071296	-1118.674682617188	292.298583984375	48.14590454101569	-1097.010375976562	234.9272003173828	39.21114730834967	-1000.188781738281	423.9072570800781	1021.600280761719	-1208.83984375	327.6023254394531	910.4428710937501	-1211.890625	409.7367553710938	1112.401000976562	-1374.865112304688	382.7868347167969	968.3170166015626	-1464.616821289062	361.9359741210938	910.6171264648439	-1487.634155273438	394.9949035644531	906.0596923828126	-1449.131713867188	363.7575378417969	706.2902221679689	-1499.349975585938	309.1648864746094	650.0305786132814	-1510.437866210938	357.56689453125	645.4809570312501	-1499.430908203125	363.7957458496094	540.7464599609376	-1497.29443359375	340.3457946777344	532.4113159179689	-1422.20751953125	407.4549865722656	1107.781005859375	-1052.6513671875	370.5191040039062	970.8851928710939	-964.9428100585936	378.6390991210938	906.7575683593751	-969.1998291015625	343.1104125976562	918.6110839843751	-933.9910278320312	340.0522155761719	694.1826782226564	-928.5833129882812	387.3540649414062	630.5701904296876	-934.613525390625	337.8795166015625	631.3652954101564	-928.8522338867188	365.1119384765625	544.0309448242189	-934.8624267578125	328.5623168945312	522.0589599609376	-1008.142028808594	
